<svg width="20" height="11" viewBox="0 0 20 11" fill="none" xmlns="http://www.w3.org/2000/svg">
<path fill-rule="evenodd" clip-rule="evenodd" d="M6.41667 10.2143C6.41667 10.0059 6.50117 9.80605 6.65159 9.6587C6.80201 9.51135 7.00602 9.42857 7.21875 9.42857H12.0312C12.244 9.42857 12.448 9.51135 12.5984 9.6587C12.7488 9.80605 12.8333 10.0059 12.8333 10.2143C12.8333 10.4227 12.7488 10.6225 12.5984 10.7699C12.448 10.9172 12.244 11 12.0312 11H7.21875C7.00602 11 6.80201 10.9172 6.65159 10.7699C6.50117 10.6225 6.41667 10.4227 6.41667 10.2143ZM3.20833 5.5C3.20833 5.29162 3.29284 5.09177 3.44326 4.94442C3.59368 4.79707 3.79769 4.71429 4.01042 4.71429H15.2396C15.4523 4.71429 15.6563 4.79707 15.8067 4.94442C15.9572 5.09177 16.0417 5.29162 16.0417 5.5C16.0417 5.70838 15.9572 5.90823 15.8067 6.05558C15.6563 6.20293 15.4523 6.28571 15.2396 6.28571H4.01042C3.79769 6.28571 3.59368 6.20293 3.44326 6.05558C3.29284 5.90823 3.20833 5.70838 3.20833 5.5ZM0 0.785714C0 0.57733 0.0845051 0.377481 0.234925 0.230131C0.385345 0.0827805 0.589358 0 0.802083 0H18.4479C18.6606 0 18.8647 0.0827805 19.0151 0.230131C19.1655 0.377481 19.25 0.57733 19.25 0.785714C19.25 0.994099 19.1655 1.19395 19.0151 1.3413C18.8647 1.48865 18.6606 1.57143 18.4479 1.57143H0.802083C0.589358 1.57143 0.385345 1.48865 0.234925 1.3413C0.0845051 1.19395 0 0.994099 0 0.785714Z" fill="#BE2025"/>
</svg>
