<svg width="93" height="93" viewBox="0 0 93 93" fill="none" xmlns="http://www.w3.org/2000/svg">
<path d="M78.5655 71.9006C74.4386 65.2511 65.3537 58.125 46.7827 58.125C28.2118 58.125 19.1327 65.2453 15 71.9006C18.8077 76.6741 23.6427 80.5275 29.1454 83.1742C34.648 85.8208 40.6767 87.1926 46.7827 87.1875C52.8888 87.1926 58.9175 85.8208 64.4201 83.1742C69.9228 80.5275 74.7578 76.6741 78.5655 71.9006Z" fill="#BE2025"/>
<path fill-rule="evenodd" clip-rule="evenodd" d="M46.4375 52.3125C51.0622 52.3125 55.4975 50.4753 58.7677 47.2052C62.0378 43.935 63.875 39.4997 63.875 34.875C63.875 30.2503 62.0378 25.815 58.7677 22.5448C55.4975 19.2747 51.0622 17.4375 46.4375 17.4375C41.8128 17.4375 37.3775 19.2747 34.1073 22.5448C30.8372 25.815 29 30.2503 29 34.875C29 39.4997 30.8372 43.935 34.1073 47.2052C37.3775 50.4753 41.8128 52.3125 46.4375 52.3125Z" fill="#BE2025"/>
<path fill-rule="evenodd" clip-rule="evenodd" d="M46.5 5.8125C35.709 5.8125 25.36 10.0992 17.7296 17.7296C10.0992 25.36 5.8125 35.709 5.8125 46.5C5.8125 57.291 10.0992 67.64 17.7296 75.2704C25.36 82.9008 35.709 87.1875 46.5 87.1875C57.291 87.1875 67.64 82.9008 75.2704 75.2704C82.9008 67.64 87.1875 57.291 87.1875 46.5C87.1875 35.709 82.9008 25.36 75.2704 17.7296C67.64 10.0992 57.291 5.8125 46.5 5.8125ZM0 46.5C0 34.1674 4.89909 22.34 13.6195 13.6195C22.34 4.89909 34.1674 0 46.5 0C58.8326 0 70.66 4.89909 79.3805 13.6195C88.1009 22.34 93 34.1674 93 46.5C93 58.8326 88.1009 70.66 79.3805 79.3805C70.66 88.1009 58.8326 93 46.5 93C34.1674 93 22.34 88.1009 13.6195 79.3805C4.89909 70.66 0 58.8326 0 46.5Z" fill="#BE2025"/>
</svg>
