<svg width="23" height="23" viewBox="0 0 23 23" fill="none" xmlns="http://www.w3.org/2000/svg">
<path d="M19.4302 17.7819C18.4096 16.1374 16.1628 14.375 11.57 14.375C6.97715 14.375 4.73178 16.1359 3.70972 17.7819C4.6514 18.9624 5.84716 19.9154 7.20803 20.57C8.56891 21.2245 10.0599 21.5638 11.57 21.5625C13.0801 21.5638 14.571 21.2245 15.9319 20.57C17.2928 19.9154 18.4885 18.9624 19.4302 17.7819Z" fill="#BE2025"/>
<path fill-rule="evenodd" clip-rule="evenodd" d="M11.4845 12.9375C12.6282 12.9375 13.7251 12.4831 14.5339 11.6744C15.3426 10.8656 15.797 9.76875 15.797 8.625C15.797 7.48125 15.3426 6.38435 14.5339 5.5756C13.7251 4.76685 12.6282 4.3125 11.4845 4.3125C10.3408 4.3125 9.24385 4.76685 8.4351 5.5756C7.62635 6.38435 7.172 7.48125 7.172 8.625C7.172 9.76875 7.62635 10.8656 8.4351 11.6744C9.24385 12.4831 10.3408 12.9375 11.4845 12.9375Z" fill="#BE2025"/>
<path fill-rule="evenodd" clip-rule="evenodd" d="M11.5 1.4375C8.83126 1.4375 6.27182 2.49765 4.38474 4.38474C2.49765 6.27182 1.4375 8.83126 1.4375 11.5C1.4375 14.1687 2.49765 16.7282 4.38474 18.6153C6.27182 20.5023 8.83126 21.5625 11.5 21.5625C14.1687 21.5625 16.7282 20.5023 18.6153 18.6153C20.5023 16.7282 21.5625 14.1687 21.5625 11.5C21.5625 8.83126 20.5023 6.27182 18.6153 4.38474C16.7282 2.49765 14.1687 1.4375 11.5 1.4375ZM0 11.5C0 8.45001 1.2116 5.52494 3.36827 3.36827C5.52494 1.2116 8.45001 0 11.5 0C14.55 0 17.4751 1.2116 19.6317 3.36827C21.7884 5.52494 23 8.45001 23 11.5C23 14.55 21.7884 17.4751 19.6317 19.6317C17.4751 21.7884 14.55 23 11.5 23C8.45001 23 5.52494 21.7884 3.36827 19.6317C1.2116 17.4751 0 14.55 0 11.5Z" fill="#BE2025"/>
</svg>
